<svg width="23" height="23" viewBox="0 0 23 23" fill="none" xmlns="http://www.w3.org/2000/svg">
<path opacity="0.5" d="M7.64903 5.04709C7.95471 4.63204 8.53898 4.54338 8.95402 4.84906C9.2764 5.08649 9.58284 5.32398 9.84978 5.53227C10.3825 5.94808 11.0962 6.52052 11.8124 7.14245C12.5241 7.76036 13.2598 8.44545 13.8249 9.08505C14.1065 9.40375 14.3655 9.73322 14.5592 10.0545C14.7374 10.3501 14.9338 10.7562 14.9338 11.2006C14.9338 11.645 14.7374 12.0512 14.5592 12.3468C14.3655 12.6681 14.1065 12.9975 13.8249 13.3162C13.2598 13.9558 12.5241 14.6409 11.8124 15.2588C11.0962 15.8807 10.3825 16.4531 9.84978 16.869C9.58284 17.0772 9.2764 17.3148 8.95403 17.5522C8.53898 17.8579 7.95471 17.7692 7.64903 17.3542C7.52615 17.1873 7.467 16.9932 7.46717 16.8007L7.46716 11.2006V5.60058C7.467 5.40812 7.52615 5.21393 7.64903 5.04709Z" fill="white"/>
<path d="M13.8249 9.08504C14.1065 9.40374 14.3655 9.7332 14.5592 10.0545C14.7374 10.35 14.9338 10.7562 14.9338 11.2006C14.9338 11.6449 14.7374 12.0512 14.5592 12.3468C14.3655 12.6681 14.1065 12.9974 13.8249 13.3162C13.2598 13.9558 12.5241 14.6409 11.8124 15.2588C11.0962 15.8807 10.3825 16.4531 9.84978 16.869C9.58284 17.0772 9.2764 17.3148 8.95403 17.5522C8.53898 17.8579 7.95471 17.7692 7.64903 17.3541C7.52615 17.1873 7.467 16.9931 7.46717 16.8007L7.46716 12.1338L12.1813 7.46716C12.7725 7.99502 13.3572 8.55562 13.8249 9.08504Z" fill="white"/>
</svg>
