<svg width="23" height="23" viewBox="0 0 23 23" fill="none" xmlns="http://www.w3.org/2000/svg">
<path opacity="0.4" d="M1.16718 11.2004C1.16718 16.7417 5.65925 21.2338 11.2005 21.2338C16.7418 21.2338 21.2338 16.7417 21.2338 11.2004C21.2338 5.65919 16.7418 1.16711 11.2005 1.16711C5.65925 1.16711 1.16718 5.65919 1.16718 11.2004Z" fill="#1E21E9"/>
<path d="M15.7518 7.48557C15.9992 7.93781 15.833 8.50494 15.3808 8.75227C14.1009 9.45221 12.8989 10.9175 11.9811 12.3229C11.5337 13.0079 11.1748 13.6459 10.9279 14.1123C10.8047 14.3449 10.7101 14.5338 10.6469 14.663L10.5551 14.8547C10.4109 15.1699 10.1039 15.3795 9.75778 15.3987C9.41161 15.4177 9.08333 15.2434 8.90535 14.9458C8.61535 14.4609 8.15453 14.0184 7.72747 13.6808C7.51997 13.5167 7.33319 13.3873 7.1999 13.3001L7.00363 13.1773C6.5561 12.9218 6.40027 12.352 6.65559 11.9044C6.91096 11.4565 7.48096 11.3006 7.92872 11.5559L8.22276 11.7386C8.3928 11.8499 8.62602 12.0116 8.88519 12.2165C9.08324 12.3731 9.30469 12.5613 9.52828 12.7782C9.76796 12.3476 10.0676 11.8392 10.4182 11.3022C11.3671 9.84925 12.7784 8.04788 14.4852 7.11451C14.9374 6.86718 15.5045 7.03331 15.7518 7.48557Z" fill="#1E21E9"/>
</svg>
