<svg width="23" height="23" viewBox="0 0 23 23" fill="none" xmlns="http://www.w3.org/2000/svg">
<path opacity="0.4" d="M1.16718 11.2006C1.16718 16.7419 5.65925 21.2339 11.2005 21.2339C16.7418 21.2339 21.2338 16.7419 21.2338 11.2006C21.2338 5.65931 16.7418 1.16724 11.2005 1.16724C5.65925 1.16724 1.16718 5.65931 1.16718 11.2006Z" fill="#098709"/>
<path d="M15.7518 7.48569C15.9992 7.93793 15.833 8.50507 15.3808 8.75239C14.1009 9.45233 12.8989 10.9177 11.9811 12.323C11.5337 13.0081 11.1748 13.646 10.9279 14.1124C10.8047 14.3451 10.7101 14.534 10.6469 14.6631L10.5551 14.8548C10.4109 15.17 10.1039 15.3797 9.75778 15.3988C9.41161 15.4178 9.08333 15.2435 8.90535 14.9459C8.61535 14.4611 8.15453 14.0185 7.72747 13.6809C7.51997 13.5168 7.33319 13.3875 7.1999 13.3002L7.00363 13.1775C6.5561 12.9219 6.40027 12.3521 6.65559 11.9045C6.91096 11.4567 7.48096 11.3007 7.92872 11.5561L8.22276 11.7387C8.3928 11.8501 8.62602 12.0117 8.88519 12.2166C9.08324 12.3732 9.30469 12.5615 9.52828 12.7784C9.76796 12.3477 10.0676 11.8393 10.4182 11.3023C11.3671 9.84937 12.7784 8.048 14.4852 7.11463C14.9374 6.8673 15.5045 7.03343 15.7518 7.48569Z" fill="#098709"/>
</svg>
