<svg width="23" height="23" viewBox="0 0 23 23" fill="none" xmlns="http://www.w3.org/2000/svg">
<path opacity="0.4" d="M21.5085 11.3959C21.5085 13.0259 21.5085 14.3173 21.3785 15.3379C21.2445 16.3884 20.9632 17.2447 20.3333 17.9512C20.1464 18.1609 19.9409 18.3542 19.7192 18.5293C18.9785 19.1143 18.0875 19.373 16.9887 19.4972C15.9122 19.6188 14.5468 19.6187 12.808 19.6187H9.88182C8.14308 19.6187 6.77758 19.6188 5.7011 19.4972C4.60233 19.373 3.71131 19.1143 2.97067 18.5293C2.74894 18.3542 2.54337 18.1608 2.35646 17.9512C1.72662 17.2447 1.44536 16.3884 1.3114 15.3379C1.18126 14.3173 1.18127 13.0258 1.18127 11.3958V11.2962C1.18127 10.7518 1.18127 10.2452 1.18612 9.77383C1.18879 9.51316 1.19013 9.38284 1.27302 9.3008C1.35592 9.21875 1.48723 9.21875 1.74986 9.21875H20.94C21.2026 9.21875 21.3339 9.21875 21.4168 9.3008C21.4997 9.38284 21.5011 9.51316 21.5037 9.77383C21.5085 10.2451 21.5085 10.7518 21.5085 11.2962V11.3959Z" fill="#94E52F"/>
<path d="M12.8101 3.07344C14.5488 3.07343 15.9142 3.07342 16.9907 3.19502C18.0895 3.31914 18.9805 3.57795 19.7211 4.16287C19.9429 4.33797 20.1484 4.53138 20.3353 4.74103C20.9652 5.44748 21.2464 6.30376 21.3804 7.35431C21.3958 7.47519 21.4035 7.53563 21.3897 7.58873C21.3675 7.67357 21.3024 7.74753 21.221 7.78024C21.1701 7.80071 21.1064 7.80071 20.979 7.80071H1.71481C1.58738 7.80071 1.52367 7.80071 1.47276 7.78024C1.39138 7.74753 1.32627 7.67358 1.30411 7.58873C1.29025 7.53563 1.29795 7.47519 1.31337 7.35431C1.44733 6.30376 1.7286 5.44748 2.35843 4.74103C2.54535 4.53138 2.75092 4.33797 2.97264 4.16287C3.71329 3.57795 4.6043 3.31914 5.70307 3.19502C6.77955 3.07342 8.14506 3.07343 9.88378 3.07344H12.8101Z" fill="#94E52F"/>
<path fill-rule="evenodd" clip-rule="evenodd" d="M9.69061 15.1278C9.69061 14.7362 10.0081 14.4188 10.3997 14.4188H11.8179C12.2095 14.4188 12.527 14.7362 12.527 15.1278C12.527 15.5194 12.2095 15.8369 11.8179 15.8369H10.3997C10.0081 15.8369 9.69061 15.5194 9.69061 15.1278Z" fill="#94E52F"/>
<path fill-rule="evenodd" clip-rule="evenodd" d="M13.9453 15.1278C13.9453 14.7362 14.2628 14.4188 14.6544 14.4188H17.9635C18.3551 14.4188 18.6726 14.7362 18.6726 15.1278C18.6726 15.5194 18.3551 15.8369 17.9635 15.8369H14.6544C14.2628 15.8369 13.9453 15.5194 13.9453 15.1278Z" fill="#94E52F"/>
</svg>
