<svg width="24" height="24" viewBox="0 0 24 24" fill="none" xmlns="http://www.w3.org/2000/svg">
<path opacity="0.4" d="M11.6004 11.8422C12.7172 11.8422 13.7567 12.3734 14.9927 13.2154L21.3089 17.5183C21.5696 17.696 21.6855 18.022 21.5955 18.3243C21.3955 18.9965 21.077 19.5649 20.5733 20.0649C19.8895 20.7438 19.081 21.0721 18.0872 21.2432C17.137 21.4068 15.9513 21.436 14.4767 21.4725L14.4209 21.4738C12.535 21.5205 10.6658 21.5205 8.77983 21.4738L8.72412 21.4725C7.24949 21.436 6.06375 21.4068 5.11364 21.2432C4.11974 21.0721 3.31126 20.7438 2.62747 20.0649C2.12377 19.5649 1.80529 18.9965 1.60525 18.3243C1.51524 18.022 1.63116 17.696 1.89194 17.5183L8.20812 13.2154C9.44406 12.3734 10.4837 11.8422 11.6004 11.8422Z" fill="#4770FF"/>
<g opacity="0.4">
<path d="M1.70973 8.59301C1.46931 8.70818 1.31149 8.946 1.29878 9.21226L1.27439 9.72283C1.20984 11.1896 1.19332 12.628 1.2249 14.0807L1.22725 14.1891C1.24303 14.9168 1.2573 15.5754 1.29133 16.172L7.22839 12.1273C6.99792 11.9737 6.75476 11.7969 6.48443 11.6L2.44984 8.66085C2.23437 8.50389 1.95014 8.47784 1.70973 8.59301Z" fill="#4770FF"/>
<path d="M21.4922 8.59301C21.7326 8.70818 21.8905 8.946 21.9032 9.21226L21.9276 9.72283C21.9922 11.1896 22.0086 12.628 21.9771 14.0807L21.9747 14.1891C21.9589 14.9168 21.9447 15.5755 21.9107 16.1721L15.9735 12.1274C16.204 11.9737 16.4472 11.7969 16.7176 11.6L20.7521 8.66085C20.9676 8.50389 21.2518 8.47784 21.4922 8.59301Z" fill="#4770FF"/>
</g>
<path d="M9.47626 2.27979C10.1976 1.91113 10.8632 1.69216 11.6005 1.69216C12.3377 1.69216 13.0034 1.91113 13.7248 2.27979C14.4224 2.63637 15.2257 3.16239 16.2313 3.82093L20.018 6.30036C20.4304 6.56969 20.7915 6.80552 21.0822 7.07538C20.6625 7.09399 20.2496 7.23396 19.8978 7.49027L15.8631 10.4294C15.5876 10.6301 15.3694 10.7884 15.1685 10.9224C14.999 11.0354 14.858 11.1809 14.7514 11.3475C13.7868 10.7953 12.7551 10.3922 11.6009 10.3922C10.4464 10.3922 9.41436 10.7956 8.44951 11.348C8.34287 11.1811 8.20168 11.0355 8.03202 10.9223C7.83115 10.7884 7.61292 10.6301 7.33747 10.4294L3.30286 7.49027C2.95111 7.23402 2.53827 7.09407 2.11877 7.0754C2.40951 6.80553 2.77058 6.56969 3.18295 6.30036L6.96962 3.82093C7.97532 3.16238 8.7786 2.63637 9.47626 2.27979Z" fill="#4770FF"/>
</svg>
