<svg width="23" height="23" viewBox="0 0 23 23" fill="none" xmlns="http://www.w3.org/2000/svg">
<path opacity="0.4" d="M7.33387 2.30216C8.46098 1.71824 9.75326 1.18127 11.3429 1.18127C12.9324 1.18127 14.2252 1.71825 15.3529 2.30215C15.6936 2.47856 16.0101 2.65306 16.3126 2.81983C17.0529 3.22798 17.7092 3.58976 18.4296 3.81951C18.8524 3.95435 19.227 4.07382 19.4926 4.17785C19.7426 4.27578 20.0397 4.40999 20.2505 4.64427C20.44 4.85471 20.5373 5.091 20.6018 5.317C20.6604 5.52217 20.7104 5.79996 20.7584 6.06644C21.9292 12.5574 19.3724 18.7071 13.1228 21.1C12.5084 21.3352 12.056 21.5085 11.346 21.5085C10.6358 21.5085 10.1834 21.3352 9.56909 21.1C3.3192 18.7072 0.759861 12.5576 1.93028 6.06649C1.9783 5.80004 2.02834 5.52231 2.08689 5.31716C2.15139 5.09117 2.24868 4.85491 2.43803 4.64446C2.64883 4.41019 2.94594 4.27595 3.19594 4.17799C3.46154 4.0739 3.83614 3.95439 4.25904 3.81946C4.97906 3.58973 5.63471 3.22805 6.37448 2.81996C6.67684 2.65317 6.99326 2.47862 7.33387 2.30216Z" fill="#88E5BE"/>
<path fill-rule="evenodd" clip-rule="evenodd" d="M11.346 16.0733C13.9568 16.0733 16.0733 13.9568 16.0733 11.346C16.0733 8.73525 13.9568 6.61877 11.346 6.61877C8.73525 6.61877 6.61877 8.73525 6.61877 11.346C6.61877 13.9568 8.73525 16.0733 11.346 16.0733ZM13.4737 10.5965C13.8428 10.4657 14.0361 10.0605 13.9054 9.69131C13.7746 9.32218 13.3694 9.12891 13.0002 9.25965C12.5444 9.42109 12.1212 9.72346 11.7631 10.0375C11.3977 10.358 11.0589 10.7274 10.7738 11.0693C10.6355 11.235 10.5079 11.3965 10.3938 11.5464C10.3104 11.4684 10.2268 11.4024 10.1439 11.3472C10.1269 11.3358 10.11 11.324 10.0927 11.3119C9.95727 11.2177 9.8024 11.1099 9.45514 11.1099C9.06352 11.1099 8.74605 11.4274 8.74605 11.819C8.74605 12.1732 9.00587 12.4669 9.34535 12.5196C9.34873 12.5216 9.35271 12.5241 9.35726 12.5271C9.40992 12.5623 9.57209 12.6929 9.76638 13.0815C9.88069 13.3101 10.1091 13.4595 10.3643 13.4726C10.6195 13.4856 10.8622 13.3601 10.9993 13.1444C11.1532 12.9264 11.607 12.2843 11.8627 11.9777C12.1198 11.6696 12.4068 11.3595 12.6982 11.1038C12.9971 10.8417 13.2621 10.6714 13.4737 10.5965Z" fill="#88E5BE"/>
</svg>
