<svg width="35" height="36" viewBox="0 0 35 36" fill="none" xmlns="http://www.w3.org/2000/svg">
<path opacity="0.8" d="M10.216 6.93454C10.7518 7.04527 11.1785 7.40524 11.4436 7.88083L12.2881 9.39588C12.5991 9.95389 12.8609 10.4235 13.0318 10.8317C13.2132 11.2647 13.3209 11.6918 13.2717 12.1639C13.2224 12.636 13.0289 13.0316 12.7622 13.4179C12.5107 13.7821 12.1576 14.1876 11.7381 14.6694L10.4967 16.0954C10.2743 16.3508 10.163 16.4786 10.1529 16.6382C10.1427 16.7979 10.2339 16.9344 10.4162 17.2071C11.9701 19.5321 14.0645 21.6271 16.3913 23.1824C16.6641 23.3648 16.8005 23.4559 16.9602 23.4457C17.1199 23.4356 17.2477 23.3243 17.5031 23.1018L18.9292 21.8605C19.411 21.441 19.8165 21.0879 20.1807 20.8364C20.5669 20.5696 20.9626 20.3761 21.4346 20.3269C21.9068 20.2777 22.3338 20.3854 22.7669 20.5667C23.175 20.7376 23.6446 20.9994 24.2025 21.3104L25.7177 22.155C26.1933 22.4201 26.5533 22.8468 26.664 23.3825C26.7759 23.9239 26.6109 24.468 26.2463 24.9153C24.9237 26.538 22.8047 27.5713 20.5817 27.1229C19.2154 26.8472 17.8671 26.388 16.2365 25.4528C12.9601 23.5738 10.0225 20.6346 8.14574 17.3621C7.21057 15.7315 6.75136 14.3832 6.47572 13.0168C6.02729 10.7938 7.06051 8.67481 8.68326 7.3522C9.13049 6.98769 9.67465 6.82264 10.216 6.93454Z" fill="#EC009D"/>
<g filter="url(#filter0_f_4_265)">
<circle cx="18.88" cy="18.3734" r="4.8" fill="#980884"/>
</g>
<defs>
<filter id="filter0_f_4_265" x="-4.48227e-05" y="-0.506576" width="37.76" height="37.76" filterUnits="userSpaceOnUse" color-interpolation-filters="sRGB">
<feFlood flood-opacity="0" result="BackgroundImageFix"/>
<feBlend mode="normal" in="SourceGraphic" in2="BackgroundImageFix" result="shape"/>
<feGaussianBlur stdDeviation="7.04" result="effect1_foregroundBlur_4_265"/>
</filter>
</defs>
</svg>
