<svg width="42" height="42" viewBox="0 0 42 42" fill="none" xmlns="http://www.w3.org/2000/svg">
<rect width="41.6" height="41.6" rx="10.4" fill="url(#paint0_linear_4_318)"/>
<path opacity="0.4" d="M26.4211 10.4772C27.8133 10.8481 28.9361 11.1472 29.7874 11.5006C30.6712 11.8674 31.3748 12.3361 31.8256 13.1125C32.2768 13.8896 32.3335 14.7316 32.2109 15.678C32.0929 16.5886 31.7919 17.7056 31.419 19.0892L30.297 23.2524C29.9242 24.6362 29.6232 25.7532 29.2676 26.6005C28.8979 27.4811 28.4259 28.1808 27.6463 28.6283C26.8673 29.0756 26.0235 29.1319 25.0737 29.0102C24.1588 28.893 23.036 28.5939 21.6439 28.2229L20.5131 27.9216C19.1209 27.5507 17.9982 27.2516 17.1468 26.8982C16.263 26.5314 15.5594 26.0626 15.1086 25.2863C14.6574 24.5092 14.6007 23.6672 14.7234 22.7208C14.8414 21.8102 15.1424 20.6932 15.5153 19.3095L16.6372 15.1463C17.01 13.7625 17.311 12.6455 17.6667 11.7983C18.0363 10.9177 18.5084 10.218 19.288 9.77037C20.067 9.32317 20.9107 9.26683 21.8606 9.38854C22.7754 9.50578 23.8982 9.80493 25.2904 10.1759L26.4211 10.4772Z" fill="white"/>
<path d="M26.1328 15.4671C26.1328 16.3508 25.4164 17.0671 24.5328 17.0671C23.6492 17.0671 22.9328 16.3508 22.9328 15.4671C22.9328 14.5835 23.6492 13.8671 24.5328 13.8671C25.4164 13.8671 26.1328 14.5835 26.1328 15.4671Z" fill="white"/>
<path fill-rule="evenodd" clip-rule="evenodd" d="M14.8525 14.3643C15.0196 14.9292 14.6972 15.5226 14.1323 15.6897C12.4387 16.1908 11.9154 16.5329 11.6581 16.976C11.4937 17.2592 11.4118 17.6324 11.5055 18.3708C11.6031 19.1406 11.8653 20.1337 12.2549 21.5959L13.3347 25.6489C13.7243 27.1112 13.9909 28.103 14.2891 28.8186C14.5751 29.5053 14.8309 29.7855 15.1117 29.9467C15.3933 30.1084 15.7676 30.189 16.5111 30.0916C17.2847 29.9903 18.2831 29.7237 19.751 29.328L20.2552 29.1923C20.824 29.039 21.4094 29.3758 21.5627 29.9446C21.716 30.5134 21.3791 31.0988 20.8103 31.2521L20.2337 31.4074C18.8565 31.7786 17.7199 32.0848 16.788 32.2069C15.8099 32.3349 14.8991 32.2845 14.0495 31.7969C13.1991 31.3086 12.6983 30.5477 12.3198 29.639C11.9597 28.7747 11.6579 27.6419 11.2927 26.2711L10.1741 22.0724C9.80877 20.7014 9.50696 19.5687 9.38908 18.6392C9.26513 17.6619 9.3208 16.7529 9.81319 15.9049C10.5449 14.6446 11.8974 14.1262 13.5271 13.644C14.0919 13.4769 14.6854 13.7994 14.8525 14.3643Z" fill="white"/>
<defs>
<linearGradient id="paint0_linear_4_318" x1="-3.9" y1="-9.96667" x2="41.6" y2="50.2667" gradientUnits="userSpaceOnUse">
<stop offset="0.0550171" stop-color="#0A0FDB"/>
<stop offset="1" stop-color="#8D00A6"/>
</linearGradient>
</defs>
</svg>
