<svg width="42" height="42" viewBox="0 0 42 42" fill="none" xmlns="http://www.w3.org/2000/svg">
<rect width="41.6" height="41.6" rx="10.4" fill="url(#paint0_linear_4_375)"/>
<path opacity="0.4" d="M16.2745 10.5974C17.5461 9.93857 19.0041 9.33276 20.7975 9.33276C22.5908 9.33276 24.0493 9.93858 25.3216 10.5973C25.7059 10.7964 26.0631 10.9932 26.4044 11.1814C27.2396 11.6419 27.98 12.05 28.7928 12.3092C29.2698 12.4614 29.6924 12.5961 29.992 12.7135C30.2741 12.824 30.6093 12.9754 30.8472 13.2397C31.0609 13.4772 31.1707 13.7437 31.2434 13.9987C31.3096 14.2302 31.366 14.5436 31.4202 14.8442C32.741 22.1673 29.8564 29.1055 22.8056 31.8052C22.1124 32.0706 21.602 32.2661 20.801 32.2661C19.9998 32.2661 19.4894 32.0706 18.7963 31.8052C11.7451 29.1056 8.85767 22.1676 10.1781 14.8443C10.2323 14.5437 10.2888 14.2303 10.3548 13.9989C10.4276 13.7439 10.5374 13.4774 10.751 13.24C10.9888 12.9756 11.324 12.8242 11.6061 12.7137C11.9057 12.5962 12.3283 12.4614 12.8055 12.3092C13.6178 12.05 14.3575 11.6419 15.1921 11.1815C15.5332 10.9934 15.8902 10.7964 16.2745 10.5974Z" fill="white"/>
<path fill-rule="evenodd" clip-rule="evenodd" d="M20.8005 26.1338C23.746 26.1338 26.1338 23.746 26.1338 20.8005C26.1338 17.855 23.746 15.4671 20.8005 15.4671C17.855 15.4671 15.4672 17.855 15.4672 20.8005C15.4672 23.746 17.855 26.1338 20.8005 26.1338ZM23.2009 19.9548C23.6173 19.8073 23.8355 19.3501 23.688 18.9336C23.5404 18.5171 23.0833 18.2991 22.6667 18.4466C22.1525 18.6287 21.6751 18.9699 21.271 19.3242C20.8587 19.6858 20.4765 20.1025 20.1548 20.4883C19.9989 20.6751 19.8549 20.8574 19.7261 21.0265C19.6321 20.9385 19.5378 20.864 19.4442 20.8017C19.425 20.7889 19.4059 20.7756 19.3864 20.762C19.2337 20.6556 19.0589 20.534 18.6672 20.534C18.2253 20.534 17.8672 20.8922 17.8672 21.334C17.8672 21.7337 18.1603 22.065 18.5433 22.1245C18.5471 22.1268 18.5516 22.1295 18.5567 22.1329C18.6161 22.1726 18.7991 22.32 19.0183 22.7584C19.1473 23.0164 19.405 23.1849 19.6929 23.1996C19.9808 23.2143 20.2546 23.0727 20.4092 22.8294C20.5829 22.5834 21.0949 21.859 21.3834 21.5131C21.6735 21.1655 21.9972 20.8156 22.326 20.5272C22.6632 20.2315 22.9622 20.0393 23.2009 19.9548Z" fill="white"/>
<defs>
<linearGradient id="paint0_linear_4_375" x1="-3.9" y1="-9.96667" x2="41.6" y2="50.2667" gradientUnits="userSpaceOnUse">
<stop offset="0.0550171" stop-color="#0A0FDB"/>
<stop offset="1" stop-color="#8D00A6"/>
</linearGradient>
</defs>
</svg>
