<svg width="42" height="42" viewBox="0 0 42 42" fill="none" xmlns="http://www.w3.org/2000/svg">
<rect width="41.6" height="41.6" rx="10.4" fill="url(#paint0_linear_4_345)"/>
<path opacity="0.4" d="M20.8551 10.3999C23.3221 10.3999 25.2473 10.3999 26.7477 10.5815C28.2744 10.7662 29.4827 11.1504 30.4392 12.0112C31.4076 12.8828 31.8511 14.0026 32.062 15.4148C32.2661 16.781 32.2661 18.6605 32.2661 20.8666C32.2661 23.0728 32.2661 24.8189 32.062 26.185C31.8511 27.5973 31.4076 28.7171 30.4392 29.5887C29.4827 30.4494 28.2744 30.8336 26.7477 31.0184C25.2473 31.1999 23.3221 31.1999 20.8551 31.1999C18.3881 31.1999 16.3516 31.1999 14.8512 31.0184C13.3245 30.8336 12.1161 30.4494 11.1597 29.5887C10.1912 28.7171 9.74777 27.5973 9.53681 26.185C9.33273 24.8189 9.33274 23.0728 9.33276 20.8666C9.33274 18.6604 9.33273 16.781 9.53681 15.4148C9.74777 14.0026 10.1912 12.8828 11.1597 12.0112C12.1161 11.1504 13.3245 10.7662 14.8512 10.5815C16.3516 10.3999 18.388 10.3999 20.8551 10.3999Z" fill="white"/>
<path d="M17.0045 15.7328C17.3681 15.7327 17.7165 15.7326 18.0029 15.7712C18.324 15.8143 18.684 15.9186 18.9824 16.217C19.2808 16.5154 19.3852 16.8754 19.4282 17.1965C19.4668 17.4829 19.4668 17.8313 19.4666 18.1949V19.1372C19.4668 19.5009 19.4668 19.8493 19.4282 20.1357C19.3852 20.4568 19.2808 20.8168 18.9824 21.1152C18.684 21.4136 18.324 21.5179 18.0029 21.561C17.7165 21.5995 17.3681 21.5995 17.0045 21.5994H16.0621C15.6985 21.5995 15.3501 21.5995 15.0637 21.561C14.7426 21.5179 14.3826 21.4136 14.0842 21.1152C13.7859 20.8168 13.6815 20.4568 13.6384 20.1357C13.5999 19.8493 13.5999 19.5009 13.6 19.1372V18.1949C13.5999 17.8313 13.5999 17.4829 13.6384 17.1965C13.6815 16.8754 13.7859 16.5154 14.0842 16.217C14.3826 15.9186 14.7426 15.8143 15.0637 15.7712C15.3501 15.7326 15.6985 15.7327 16.0621 15.7328H17.0045Z" fill="white"/>
<path fill-rule="evenodd" clip-rule="evenodd" d="M13.6 25.0671C13.6 24.6253 13.9582 24.2671 14.4 24.2671H18.6666C19.1085 24.2671 19.4666 24.6253 19.4666 25.0671C19.4666 25.5089 19.1085 25.8671 18.6666 25.8671H14.4C13.9582 25.8671 13.6 25.5089 13.6 25.0671Z" fill="white"/>
<path fill-rule="evenodd" clip-rule="evenodd" d="M22.1328 16.5328C22.1328 16.0909 22.491 15.7328 22.9328 15.7328H27.1995C27.6413 15.7328 27.9995 16.0909 27.9995 16.5328C27.9995 16.9746 27.6413 17.3328 27.1995 17.3328H22.9328C22.491 17.3328 22.1328 16.9746 22.1328 16.5328Z" fill="white"/>
<path fill-rule="evenodd" clip-rule="evenodd" d="M22.1328 20.7999C22.1328 20.3581 22.491 19.9999 22.9328 19.9999H27.1995C27.6413 19.9999 27.9995 20.3581 27.9995 20.7999C27.9995 21.2418 27.6413 21.5999 27.1995 21.5999H22.9328C22.491 21.5999 22.1328 21.2418 22.1328 20.7999Z" fill="white"/>
<path fill-rule="evenodd" clip-rule="evenodd" d="M22.1328 25.0671C22.1328 24.6253 22.491 24.2671 22.9328 24.2671H27.1995C27.6413 24.2671 27.9995 24.6253 27.9995 25.0671C27.9995 25.5089 27.6413 25.8671 27.1995 25.8671H22.9328C22.491 25.8671 22.1328 25.5089 22.1328 25.0671Z" fill="white"/>
<defs>
<linearGradient id="paint0_linear_4_345" x1="-3.9" y1="-9.96667" x2="41.6" y2="50.2667" gradientUnits="userSpaceOnUse">
<stop offset="0.0550171" stop-color="#0A0FDB"/>
<stop offset="1" stop-color="#8D00A6"/>
</linearGradient>
</defs>
</svg>
