<svg width="23" height="23" viewBox="0 0 23 23" fill="none" xmlns="http://www.w3.org/2000/svg">
<path opacity="0.4" d="M1.16718 11.2006C1.16718 16.7419 5.65925 21.2339 11.2005 21.2339C16.7418 21.2339 21.2338 16.7419 21.2338 11.2006C21.2338 5.65931 16.7418 1.16724 11.2005 1.16724C5.65925 1.16724 1.16718 5.65931 1.16718 11.2006Z" fill="#7950FF"/>
<path d="M15.7518 7.48581C15.9992 7.93806 15.833 8.50519 15.3808 8.75251C14.1009 9.45246 12.8989 10.9178 11.9811 12.3231C11.5337 13.0082 11.1748 13.6461 10.9279 14.1125C10.8047 14.3452 10.7101 14.5341 10.6469 14.6633L10.5551 14.855C10.4109 15.1701 10.1039 15.3798 9.75778 15.3989C9.41161 15.4179 9.08333 15.2436 8.90535 14.9461C8.61535 14.4612 8.15453 14.0186 7.72747 13.681C7.51997 13.5169 7.33319 13.3876 7.1999 13.3003L7.00363 13.1776C6.5561 12.922 6.40027 12.3522 6.65559 11.9046C6.91096 11.4568 7.48096 11.3008 7.92872 11.5562L8.22276 11.7388C8.3928 11.8502 8.62602 12.0118 8.88519 12.2167C9.08324 12.3733 9.30469 12.5616 9.52828 12.7785C9.76796 12.3478 10.0676 11.8395 10.4182 11.3024C11.3671 9.8495 12.7784 8.04812 14.4852 7.11475C14.9374 6.86742 15.5045 7.03355 15.7518 7.48581Z" fill="#7950FF"/>
</svg>
